# AST/ASF file generated using VICON BodyLanguage
# -----------------------------------------------
:version 1.10
:name VICON
:units
  mass 1.0
  length 0.45
  angle deg
:documentation
   .ast/.asf automatically generated from VICON data using
   VICON BodyBuilder and BodyLanguage model FoxedUp or BRILLIANT.MOD
:root
   order TX TY TZ RX RY RZ
   axis XYZ
   position 0 0 0  
   orientation 0 0 0 
:bonedata
  begin
     id 1 
     name lhipjoint
     direction 0.690799 -0.707083 0.151096 
     length 2.54797 
     axis 0 0 0  XYZ
  end
  begin
     id 2 
     name lfemur
     direction 0.34202 -0.939693 0  
     length 7.21646  
     axis 0 0 20  XYZ
    dof rx ry rz
    limits (-160.0 20.0)
           (-70.0 70.0)
           (-60.0 70.0)
  end
  begin
     id 3 
     name ltibia
     direction 0.34202 -0.939693 0   
     length 8.16759   
     axis 0 0 20   XYZ
    dof rx
    limits (-10.0 170.0)
  end
  begin
     id 4 
     name lfoot
     direction 0.0487203 -0.133858 0.989802   
     length 1.93375   
     axis -90 7.62852e-016 20   XYZ
    dof rx rz
    limits (-45.0 90.0)
           (-70.0 20.0)
  end
  begin
     id 5 
     name ltoes
     direction 1.53453e-011 -4.21783e-011 1   
     length 0.979747   
     axis -90 7.62852e-016 20   XYZ
    dof rx
    limits (-90.0 20.0)
  end
  begin
     id 6 
     name rhipjoint
     direction -0.694693 -0.703425 0.150315   
     length 2.56122  
     axis 0 0 0  XYZ 
  end
  begin
     id 7 
     name rfemur
     direction -0.34202 -0.939693 0   
     length 7.36786   
     axis 0 0 -20   XYZ
    dof rx ry rz
    limits (-160.0 20.0)
           (-70.0 70.0)
           (-70.0 60.0)
  end
  begin
     id 8 
     name rtibia
     direction -0.34202 -0.939693 0   
     length 8.07288   
     axis 0 0 -20   XYZ
    dof rx
    limits (-10.0 170.0)
 end
 begin
     id 9 
     name rfoot
     direction -0.0428397 -0.117701 0.992125   
     length 1.88295  
     axis -90 -7.62852e-016 -20   XYZ
    dof rx rz
    limits (-45.0 90.0)
           (-20.0 70.0)
  end
  begin
     id 10 
     name rtoes
     direction -1.53456e-011 -4.2187e-011 1   
     length 0.955578   
     axis -90 -7.62852e-016 -20   XYZ
    dof rx
    limits (-90.0 20.0)
  end
  begin
     id 11 
     name lowerback
     direction 0.0288145 0.999398 -0.0193241   
     length 1.92149   
     axis 0 0 0   XYZ
    dof rx ry rz
    limits (-20.0 45.0)
           (-30.0 30.0)
           (-30.0 30.0)
  end
  begin
     id 12 
     name upperback
     direction 0.0233784 0.998099 0.0570278   
     length 1.90435   
     axis 0 0 0   XYZ
    dof rx ry rz
    limits (-20.0 45.0)
           (-30.0 30.0)
           (-30.0 30.0)
  end
  begin
     id 13 
     name thorax
     direction 0.0096694 0.997833 0.0650817   
     length 1.9111   
     axis 0 0 0   XYZ
    dof rx ry rz
    limits (-20.0 45.0)
           (-30.0 30.0)
           (-30.0 30.0)
  end
  begin
     id 14 
     name lowerneck
     direction 0.00516803 0.999916 0.0118722   
     length 1.74664   
     axis 0 0 0   XYZ
    dof rx ry rz
    limits (-20.0 45.0)
           (-30.0 30.0)
           (-30.0 30.0)
  end
  begin
     id 15 
     name upperneck
     direction -0.0510851 0.996117 -0.071696   
     length 1.68498   
     axis 0 0 0   XYZ
    dof rx ry rz
    limits (-20.0 45.0)
           (-30.0 30.0)
           (-30.0 30.0)
  end
  begin
     id 16
     name head
     direction -0.019188 0.999436 -0.0275702  
     length 1.83483  
     axis 0 0 0   XYZ
    dof rx ry rz
    limits (-20.0 45.0)
           (-30.0 30.0)
           (-30.0 30.0)
  end
  begin
     id 17 
     name lclavicle
     direction 0.967006 0.248456 -0.0562957  
     length 3.39395  
     axis 0 0 0   XYZ
    dof ry rz
    limits (-20.0 10.0)
           (0.0 20.0)
  end
  begin
     id 18 
     name lhumerus
     direction 1 -4.48962e-011 -5.62711e-019   
     length 5.24318   
     axis 180 -30 -90   XYZ
    dof rx ry rz
    limits (-60.0 90.0)
           (-90.0 90.0)
           (-90.0 90.0)
  end
  begin
     id 19
     name lradius
     direction 1 -4.48966e-011 7.90625e-027   
     length 2.98999   
     axis 180 -30 -90   XYZ
    dof rx
    limits (-10.0 170.0)
  end
  begin
     id 20
     name lwrist
     direction 1 -4.48959e-011 1.61068e-026   
     length 1.49499   
     axis -9.31229e-015 90 90   XYZ
    dof ry
    limits (-180.0 0.0)
 end
  begin
     id 21 
     name lhand
     direction 1 -4.49017e-011 3.22136e-026   
     length 0.726745   
     axis -2.0555e-014 90 90   XYZ
    dof rx rz
    limits (-90.0 90.0)
           (-45.0 45.0)
  end
  begin
     id 22 
     name lfingers
     direction 1 -4.4898e-011 6.44272e-026   
     length 0.58592   
     axis -4.11101e-014 90 90   XYZ
    dof rx
    limits (0.0 90.0)
  end
  begin
     id 23
     name lthumb
     direction 0.707107 -6.34922e-011 0.707107   
     length 0.841268   
     axis -90 45 2.85299e-015   XYZ
    dof rx rz
    limits (-45.0 45.0)
           (-45.0 45.0)
  end
  begin
     id 24 
     name rclavicle
     direction -0.972232 0.230238 0.0419005   
     length 3.40416  
     axis 0 0 0   XYZ 
    dof ry rz
    limits (-10.0 20.0)
           (-20.0 0.0)
  end
  begin
     id 25 
     name rhumerus
     direction -1 -4.48976e-011 2.48487e-027  
     length 5.37045   
     axis 180 30 90   XYZ
    dof rx ry rz
    limits (-90.0 60.0)
           (-90.0 90.0)
           (-90.0 90.0)
  end
  begin
     id 26 
     name rradius
     direction -1 -4.48942e-011 7.87951e-027   
     length 2.92792   
     axis 180 30 90   XYZ
    dof rx
    limits (-10.0 170.0)
  end
  begin
     id 27 
     name rwrist
     direction -1 -4.48969e-011 1.61068e-026   
     length 1.46396   
     axis -9.31229e-015 -90 -90   XYZ
    dof ry
    limits (-180.0 0.0)
  end
  begin
     id 28
     name rhand
     direction -1 -4.49043e-011 3.22136e-026   
     length 0.784497   
     axis -2.0555e-014 -90 -90   XYZ
    dof rx rz
    limits (-90.0 90.0)
           (-45.0 45.0)
  end
  begin
     id 29
     name rfingers
     direction -1 -4.48823e-011 6.44272e-026   
     length 0.632482   
     axis -4.11101e-014 -90 -90   XYZ
    dof rx
    limits (0.0 90.0)
  end
  begin
     id 30
     name rthumb
     direction -0.707107 -6.34923e-011 0.707107   
     length 0.908121   
     axis -90 -45 -2.85299e-015   XYZ
    dof rx rz
    limits (-45.0 45.0)
           (-45.0 45.0)
  end
:hierarchy
  begin
    root lhipjoint rhipjoint lowerback
    lhipjoint lfemur
    lfemur ltibia
    ltibia lfoot
    lfoot ltoes
    rhipjoint rfemur
    rfemur rtibia
    rtibia rfoot
    rfoot rtoes
    lowerback upperback
    upperback thorax
    thorax lowerneck lclavicle rclavicle
    lowerneck upperneck
    upperneck head
    lclavicle lhumerus
    lhumerus lradius
    lradius lwrist
    lwrist lhand lthumb
    lhand lfingers
    rclavicle rhumerus
    rhumerus rradius
    rradius rwrist
    rwrist rhand rthumb
    rhand rfingers
  end

#!OML:ASF E:\Style6\Style6.ASF
:FULLY-SPECIFIED
:DEGREES
489
root 0.286737 17.7961 -1.29468 30.7751 -3.22347 3.82717
lowerback 8.99282 -0.587945 4.30614
upperback 2.18338 -0.165399 6.8497
thorax -2.76769 -0.103417 4.74789
lowerneck 5.93494 11.8352 4.68443
upperneck 19.5157 18.9864 -17.8263
head 7.2116 8.6772 -5.53341
rclavicle 1.27222e-014 -7.4743e-014
rhumerus 3.84418 -4.64977 -73.108
rradius 29.0332
rwrist 34.9046
rhand -1.34137 7.39246
rfingers 7.12502
rthumb 24.305 -21.0867
lclavicle 1.27222e-014 -7.4743e-014
lhumerus 72.0757 -34.6833 53.906
lradius 24.9526
lwrist 2.08617
lhand 3.28904 17.9874
lfingers 7.12502
lthumb 28.7367 45.7961
rfemur -53.665 -4.23993 16.652
rtibia 28.7354
rfoot -0.67535 -6.76539
rtoes -13.8083
lfemur -48.9314 5.24611 -25.5817
ltibia 25.2474
lfoot -1.61997 0.905011
ltoes -17.2075
490
root 0.288103 17.7943 -1.29704 30.7576 -3.14821 3.738
lowerback 8.94488 -0.572673 4.3159
upperback 2.19722 -0.150898 6.8118
thorax -2.72745 -0.096108 4.69908
lowerneck 5.91332 11.8119 4.58123
upperneck 19.4212 18.9296 -17.7848
head 7.16215 8.64863 -5.50744
rclavicle 7.95139e-015 -8.11041e-014
rhumerus 3.82678 -4.55441 -73.2343
rradius 29.1012
rwrist 34.6238
rhand -1.43649 7.40224
rfingers 7.12502
rthumb 24.2138 -21.0891
lclavicle 7.95139e-015 -8.11041e-014
lhumerus 72.0321 -34.4923 54.1158
lradius 24.9252
lwrist 2.36454
lhand 3.31533 17.9774
lfingers 7.12502
lthumb 28.7618 45.7819
rfemur -53.5991 -4.10347 16.6591
rtibia 28.686
rfoot -0.728806 -6.97511
rtoes -13.3705
lfemur -48.9554 5.18834 -25.4282
ltibia 25.3023
lfoot -1.58888 0.952144
ltoes -17.4125
491
root 0.290183 17.7941 -1.29918 30.6979 -3.11019 3.73271
lowerback 8.96211 -0.576134 4.18654
upperback 2.2271 -0.168894 6.78472
thorax -2.7047 -0.104209 4.74527
lowerneck 5.78948 11.8221 4.50115
upperneck 19.3944 18.9473 -17.8076
head 7.17213 8.64455 -5.49203
rclavicle -6.36111e-015 -6.83819e-014
rhumerus 3.88276 -4.51198 -73.4022
rradius 29.1018
rwrist 34.7427
rhand -1.5354 7.5142
rfingers 7.12502
rthumb 24.1189 -20.9897
lclavicle -6.36111e-015 -6.83819e-014
lhumerus 71.7421 -34.162 54.7794
lradius 24.8222
lwrist 2.31613
lhand 3.51281 17.859
lfingers 7.12502
lthumb 28.9505 45.6312
rfemur -53.503 -3.99481 16.5645
rtibia 28.6523
rfoot -0.698303 -7.14061
rtoes -13.555
lfemur -48.9322 5.14965 -25.3999
ltibia 25.3671
lfoot -1.59024 0.930787
ltoes -17.7218
492
root 0.293526 17.7951 -1.30155 30.6834 -3.04849 3.76651
lowerback 8.97575 -0.59447 4.06571
upperback 2.21332 -0.203271 6.72938
thorax -2.72476 -0.120478 4.75902
lowerneck 5.83058 11.8128 4.52409
upperneck 19.2481 18.9339 -17.9349
head 7.12951 8.64408 -5.54156
rclavicle -1.43125e-014 9.54166e-015
rhumerus 3.8509 -4.42477 -73.589
rradius 29.2012
rwrist 34.846
rhand -1.48784 7.48345
rfingers 7.12502
rthumb 24.1645 -21.0144
lclavicle -1.43125e-014 9.54166e-015
lhumerus 71.5609 -33.9153 55.2298
lradius 24.7155
lwrist 2.41743
lhand 3.71821 17.8828
lfingers 7.12502
lthumb 29.1466 45.6213
rfemur -53.4708 -4.01545 16.5147
rtibia 28.6328
rfoot -0.632015 -7.20811
rtoes -14.2259
lfemur -48.9431 5.0617 -25.395
ltibia 25.4096
lfoot -1.61895 0.93284
ltoes -17.3243
493
root 0.297956 17.7968 -1.30284 30.647 -2.94648 3.69307
lowerback 8.99257 -0.601387 4.11235
upperback 2.20698 -0.207778 6.67439
thorax -2.74086 -0.122914 4.67493
lowerneck 5.94843 11.795 4.53853
upperneck 19.0583 18.8902 -18.02
head 7.04985 8.63773 -5.58403
rclavicle 3.18055e-015 -2.22639e-014
rhumerus 3.78688 -4.36398 -73.7577
rradius 29.3515
rwrist 34.7057
rhand -1.37537 7.50971
rfingers 7.12502
rthumb 24.2724 -20.9738
lclavicle 3.18055e-015 -2.22639e-014
lhumerus 71.564 -33.7704 55.3584
lradius 24.685
lwrist 2.85565
lhand 3.79419 18.088
lfingers 7.12502
lthumb 29.2192 45.8138
rfemur -53.3849 -3.98957 16.5634
rtibia 28.6075
rfoot -0.655364 -7.27466
rtoes -14.3056
lfemur -48.921 5.01928 -25.2855
ltibia 25.4342
lfoot -1.62045 0.93511
ltoes -16.9494
494
root 0.30076 17.7979 -1.3038 30.6024 -2.94593 3.69081
lowerback 9.02673 -0.571691 4.02765
upperback 2.2087 -0.175789 6.60072
thorax -2.75974 -0.106569 4.64134
lowerneck 5.97806 11.7828 4.48525
upperneck 18.938 18.855 -18.0365
head 6.99677 8.62522 -5.58645
rclavicle -3.18055e-015 -9.38264e-014
rhumerus 3.75236 -4.27017 -73.8855
rradius 29.4536
rwrist 34.5229
rhand -1.40158 7.50286
rfingers 7.12502
rthumb 24.2472 -20.984
lclavicle -3.18055e-015 -9.38264e-014
lhumerus 71.5719 -33.6382 55.6818
lradius 24.5919
lwrist 3.13866
lhand 3.85232 18.2491
lfingers 7.12502
lthumb 29.2747 45.9653
rfemur -53.2969 -3.81228 16.4029
rtibia 28.5699
rfoot -0.714042 -7.49145
rtoes -13.4236
lfemur -48.8752 4.98425 -25.2635
ltibia 25.4563
lfoot -1.62359 0.968711
ltoes -17.1662
